<mxfile host="app.diagrams.net" modified="2024-05-29T12:21:43.469Z" agent="Mozilla/5.0 (Windows NT 10.0; Win64; x64) AppleWebKit/537.36 (KHTML, like Gecko) Chrome/125.0.0.0 Safari/537.36 Edg/125.0.0.0" etag="cDhNtow7eyfEkajw-pRT" version="24.4.8" type="device">
  <diagram name="第 1 页" id="QSj9gNi2EI720A9MzcVT">
    <mxGraphModel dx="1507" dy="5390" grid="1" gridSize="10" guides="1" tooltips="1" connect="1" arrows="0" fold="1" page="1" pageScale="1" pageWidth="3300" pageHeight="4681" math="0" shadow="0">
      <root>
        <mxCell id="0" />
        <mxCell id="1" parent="0" />
        <mxCell id="DHYdU_vS-8Hj54yX8ZzH-95" value="" style="rounded=0;whiteSpace=wrap;html=1;" vertex="1" parent="1">
          <mxGeometry x="900" y="-5" width="850" height="545" as="geometry" />
        </mxCell>
        <mxCell id="DHYdU_vS-8Hj54yX8ZzH-37" value="" style="rounded=0;whiteSpace=wrap;html=1;" vertex="1" parent="1">
          <mxGeometry x="220" y="40" width="490" height="540" as="geometry" />
        </mxCell>
        <mxCell id="DHYdU_vS-8Hj54yX8ZzH-5" value="会员" style="shape=umlActor;verticalLabelPosition=bottom;verticalAlign=top;html=1;outlineConnect=0;" vertex="1" parent="1">
          <mxGeometry x="140" y="200" width="30" height="60" as="geometry" />
        </mxCell>
        <mxCell id="DHYdU_vS-8Hj54yX8ZzH-7" value="图书管理员" style="shape=umlActor;verticalLabelPosition=bottom;verticalAlign=top;html=1;outlineConnect=0;" vertex="1" parent="1">
          <mxGeometry x="730" y="310" width="30" height="60" as="geometry" />
        </mxCell>
        <mxCell id="DHYdU_vS-8Hj54yX8ZzH-8" value="" style="endArrow=classic;html=1;rounded=0;exitX=1;exitY=0.3333333333333333;exitDx=0;exitDy=0;exitPerimeter=0;entryX=0;entryY=0.5;entryDx=0;entryDy=0;" edge="1" parent="1" source="DHYdU_vS-8Hj54yX8ZzH-5" target="DHYdU_vS-8Hj54yX8ZzH-10">
          <mxGeometry width="50" height="50" relative="1" as="geometry">
            <mxPoint x="280" y="190" as="sourcePoint" />
            <mxPoint x="288" y="190" as="targetPoint" />
          </mxGeometry>
        </mxCell>
        <mxCell id="DHYdU_vS-8Hj54yX8ZzH-10" value="注册会员" style="ellipse;whiteSpace=wrap;html=1;" vertex="1" parent="1">
          <mxGeometry x="290" y="160" width="70" height="40" as="geometry" />
        </mxCell>
        <mxCell id="DHYdU_vS-8Hj54yX8ZzH-15" value="" style="endArrow=classic;html=1;rounded=0;exitX=1;exitY=0.3333333333333333;exitDx=0;exitDy=0;exitPerimeter=0;entryX=0;entryY=0.5;entryDx=0;entryDy=0;" edge="1" parent="1" source="DHYdU_vS-8Hj54yX8ZzH-5" target="DHYdU_vS-8Hj54yX8ZzH-16">
          <mxGeometry width="50" height="50" relative="1" as="geometry">
            <mxPoint x="160" y="410" as="sourcePoint" />
            <mxPoint x="210" y="360" as="targetPoint" />
          </mxGeometry>
        </mxCell>
        <mxCell id="DHYdU_vS-8Hj54yX8ZzH-16" value="充值积分" style="ellipse;whiteSpace=wrap;html=1;" vertex="1" parent="1">
          <mxGeometry x="290" y="280" width="70" height="40" as="geometry" />
        </mxCell>
        <mxCell id="DHYdU_vS-8Hj54yX8ZzH-20" value="图书管理" style="ellipse;whiteSpace=wrap;html=1;" vertex="1" parent="1">
          <mxGeometry x="450" y="150" width="70" height="40" as="geometry" />
        </mxCell>
        <mxCell id="DHYdU_vS-8Hj54yX8ZzH-21" value="借书管理" style="ellipse;whiteSpace=wrap;html=1;" vertex="1" parent="1">
          <mxGeometry x="450" y="220" width="70" height="40" as="geometry" />
        </mxCell>
        <mxCell id="DHYdU_vS-8Hj54yX8ZzH-22" value="还书管理" style="ellipse;whiteSpace=wrap;html=1;" vertex="1" parent="1">
          <mxGeometry x="450" y="290" width="70" height="40" as="geometry" />
        </mxCell>
        <mxCell id="DHYdU_vS-8Hj54yX8ZzH-23" value="图书种类管理&lt;span style=&quot;color: rgba(0, 0, 0, 0); font-family: monospace; font-size: 0px; text-align: start; text-wrap: nowrap;&quot;&gt;%3CmxGraphModel%3E%3Croot%3E%3CmxCell%20id%3D%220%22%2F%3E%3CmxCell%20id%3D%221%22%20parent%3D%220%22%2F%3E%3CmxCell%20id%3D%222%22%20value%3D%22%E5%80%9F%E4%B9%A6%E7%AE%A1%E7%90%86%22%20style%3D%22ellipse%3BwhiteSpace%3Dwrap%3Bhtml%3D1%3B%22%20vertex%3D%221%22%20parent%3D%221%22%3E%3CmxGeometry%20x%3D%22450%22%20y%3D%22220%22%20width%3D%2270%22%20height%3D%2240%22%20as%3D%22geometry%22%2F%3E%3C%2FmxCell%3E%3C%2Froot%3E%3C%2FmxGraphModel%3E&lt;/span&gt;" style="ellipse;whiteSpace=wrap;html=1;" vertex="1" parent="1">
          <mxGeometry x="450" y="370" width="70" height="40" as="geometry" />
        </mxCell>
        <mxCell id="DHYdU_vS-8Hj54yX8ZzH-24" value="会员管理" style="ellipse;whiteSpace=wrap;html=1;" vertex="1" parent="1">
          <mxGeometry x="450" y="440" width="70" height="40" as="geometry" />
        </mxCell>
        <mxCell id="DHYdU_vS-8Hj54yX8ZzH-25" value="登录" style="ellipse;whiteSpace=wrap;html=1;" vertex="1" parent="1">
          <mxGeometry x="450" y="70" width="70" height="40" as="geometry" />
        </mxCell>
        <mxCell id="DHYdU_vS-8Hj54yX8ZzH-26" value="管理员账户管理" style="ellipse;whiteSpace=wrap;html=1;" vertex="1" parent="1">
          <mxGeometry x="450" y="510" width="70" height="40" as="geometry" />
        </mxCell>
        <mxCell id="DHYdU_vS-8Hj54yX8ZzH-30" value="" style="endArrow=classic;html=1;rounded=0;exitX=0;exitY=0.3333333333333333;exitDx=0;exitDy=0;exitPerimeter=0;entryX=1;entryY=0.5;entryDx=0;entryDy=0;" edge="1" parent="1" source="DHYdU_vS-8Hj54yX8ZzH-7" target="DHYdU_vS-8Hj54yX8ZzH-25">
          <mxGeometry width="50" height="50" relative="1" as="geometry">
            <mxPoint x="560" y="140" as="sourcePoint" />
            <mxPoint x="530" y="90" as="targetPoint" />
            <Array as="points">
              <mxPoint x="620" y="210" />
            </Array>
          </mxGeometry>
        </mxCell>
        <mxCell id="DHYdU_vS-8Hj54yX8ZzH-31" value="" style="endArrow=classic;html=1;rounded=0;exitX=0;exitY=0.3333333333333333;exitDx=0;exitDy=0;exitPerimeter=0;entryX=1;entryY=0.5;entryDx=0;entryDy=0;" edge="1" parent="1" source="DHYdU_vS-8Hj54yX8ZzH-7" target="DHYdU_vS-8Hj54yX8ZzH-20">
          <mxGeometry width="50" height="50" relative="1" as="geometry">
            <mxPoint x="660" y="180" as="sourcePoint" />
            <mxPoint x="710" y="130" as="targetPoint" />
          </mxGeometry>
        </mxCell>
        <mxCell id="DHYdU_vS-8Hj54yX8ZzH-32" value="" style="endArrow=classic;html=1;rounded=0;exitX=0;exitY=0.3333333333333333;exitDx=0;exitDy=0;exitPerimeter=0;entryX=1;entryY=0.5;entryDx=0;entryDy=0;" edge="1" parent="1" source="DHYdU_vS-8Hj54yX8ZzH-7" target="DHYdU_vS-8Hj54yX8ZzH-21">
          <mxGeometry width="50" height="50" relative="1" as="geometry">
            <mxPoint x="660" y="190" as="sourcePoint" />
            <mxPoint x="710" y="140" as="targetPoint" />
          </mxGeometry>
        </mxCell>
        <mxCell id="DHYdU_vS-8Hj54yX8ZzH-33" value="" style="endArrow=classic;html=1;rounded=0;exitX=0;exitY=0.3333333333333333;exitDx=0;exitDy=0;exitPerimeter=0;entryX=1;entryY=0.5;entryDx=0;entryDy=0;" edge="1" parent="1" source="DHYdU_vS-8Hj54yX8ZzH-7" target="DHYdU_vS-8Hj54yX8ZzH-22">
          <mxGeometry width="50" height="50" relative="1" as="geometry">
            <mxPoint x="580" y="410" as="sourcePoint" />
            <mxPoint x="630" y="360" as="targetPoint" />
          </mxGeometry>
        </mxCell>
        <mxCell id="DHYdU_vS-8Hj54yX8ZzH-34" value="" style="endArrow=classic;html=1;rounded=0;exitX=0;exitY=0.3333333333333333;exitDx=0;exitDy=0;exitPerimeter=0;entryX=1;entryY=0.5;entryDx=0;entryDy=0;" edge="1" parent="1" source="DHYdU_vS-8Hj54yX8ZzH-7" target="DHYdU_vS-8Hj54yX8ZzH-23">
          <mxGeometry width="50" height="50" relative="1" as="geometry">
            <mxPoint x="590" y="390" as="sourcePoint" />
            <mxPoint x="640" y="340" as="targetPoint" />
          </mxGeometry>
        </mxCell>
        <mxCell id="DHYdU_vS-8Hj54yX8ZzH-35" value="" style="endArrow=classic;html=1;rounded=0;exitX=0;exitY=0.3333333333333333;exitDx=0;exitDy=0;exitPerimeter=0;entryX=1;entryY=0.5;entryDx=0;entryDy=0;" edge="1" parent="1" source="DHYdU_vS-8Hj54yX8ZzH-7" target="DHYdU_vS-8Hj54yX8ZzH-24">
          <mxGeometry width="50" height="50" relative="1" as="geometry">
            <mxPoint x="650" y="390" as="sourcePoint" />
            <mxPoint x="700" y="340" as="targetPoint" />
          </mxGeometry>
        </mxCell>
        <mxCell id="DHYdU_vS-8Hj54yX8ZzH-36" value="" style="endArrow=classic;html=1;rounded=0;exitX=0;exitY=0.3333333333333333;exitDx=0;exitDy=0;exitPerimeter=0;entryX=1;entryY=0.5;entryDx=0;entryDy=0;" edge="1" parent="1" source="DHYdU_vS-8Hj54yX8ZzH-7" target="DHYdU_vS-8Hj54yX8ZzH-26">
          <mxGeometry width="50" height="50" relative="1" as="geometry">
            <mxPoint x="740" y="560" as="sourcePoint" />
            <mxPoint x="790" y="510" as="targetPoint" />
          </mxGeometry>
        </mxCell>
        <mxCell id="DHYdU_vS-8Hj54yX8ZzH-38" value="&lt;font style=&quot;font-size: 18px;&quot;&gt;图书馆书籍管理系统&lt;/font&gt;" style="text;html=1;align=center;verticalAlign=middle;whiteSpace=wrap;rounded=0;" vertex="1" parent="1">
          <mxGeometry x="570" y="60" width="100" height="30" as="geometry" />
        </mxCell>
        <mxCell id="DHYdU_vS-8Hj54yX8ZzH-39" value="" style="ellipse;whiteSpace=wrap;html=1;aspect=fixed;fillColor=#000000;" vertex="1" parent="1">
          <mxGeometry x="932.5" y="72.5" width="17.5" height="17.5" as="geometry" />
        </mxCell>
        <mxCell id="DHYdU_vS-8Hj54yX8ZzH-41" value="" style="ellipse;html=1;shape=endState;fillColor=#000000;strokeColor=#141414;" vertex="1" parent="1">
          <mxGeometry x="920" y="480" width="30" height="30" as="geometry" />
        </mxCell>
        <mxCell id="DHYdU_vS-8Hj54yX8ZzH-43" value="管理员" style="text;html=1;align=center;verticalAlign=middle;whiteSpace=wrap;rounded=0;" vertex="1" parent="1">
          <mxGeometry x="1190" y="10" width="60" height="30" as="geometry" />
        </mxCell>
        <mxCell id="DHYdU_vS-8Hj54yX8ZzH-44" value="图书管理系统" style="text;html=1;align=center;verticalAlign=middle;whiteSpace=wrap;rounded=0;" vertex="1" parent="1">
          <mxGeometry x="1440" y="10" width="80" height="30" as="geometry" />
        </mxCell>
        <mxCell id="DHYdU_vS-8Hj54yX8ZzH-45" value="会员" style="text;html=1;align=center;verticalAlign=middle;whiteSpace=wrap;rounded=0;" vertex="1" parent="1">
          <mxGeometry x="1640" y="10" width="80" height="30" as="geometry" />
        </mxCell>
        <mxCell id="DHYdU_vS-8Hj54yX8ZzH-46" value="" style="endArrow=classic;html=1;rounded=0;exitX=1;exitY=0;exitDx=0;exitDy=0;entryX=0;entryY=0.5;entryDx=0;entryDy=0;" edge="1" parent="1" source="DHYdU_vS-8Hj54yX8ZzH-39" target="DHYdU_vS-8Hj54yX8ZzH-47">
          <mxGeometry width="50" height="50" relative="1" as="geometry">
            <mxPoint x="960" y="80" as="sourcePoint" />
            <mxPoint x="1100" y="74" as="targetPoint" />
          </mxGeometry>
        </mxCell>
        <mxCell id="DHYdU_vS-8Hj54yX8ZzH-47" value="登录" style="rounded=0;whiteSpace=wrap;html=1;" vertex="1" parent="1">
          <mxGeometry x="1120" y="63" width="80" height="24" as="geometry" />
        </mxCell>
        <mxCell id="DHYdU_vS-8Hj54yX8ZzH-48" value="" style="endArrow=classic;html=1;rounded=0;exitX=0.5;exitY=1;exitDx=0;exitDy=0;entryX=0.5;entryY=0;entryDx=0;entryDy=0;" edge="1" parent="1" source="DHYdU_vS-8Hj54yX8ZzH-47" target="DHYdU_vS-8Hj54yX8ZzH-49">
          <mxGeometry width="50" height="50" relative="1" as="geometry">
            <mxPoint x="1240" y="250" as="sourcePoint" />
            <mxPoint x="1160" y="120" as="targetPoint" />
          </mxGeometry>
        </mxCell>
        <mxCell id="DHYdU_vS-8Hj54yX8ZzH-49" value="" style="rhombus;whiteSpace=wrap;html=1;" vertex="1" parent="1">
          <mxGeometry x="1144" y="110" width="30" height="30" as="geometry" />
        </mxCell>
        <mxCell id="DHYdU_vS-8Hj54yX8ZzH-51" value="" style="endArrow=classic;html=1;rounded=0;exitX=1;exitY=0.5;exitDx=0;exitDy=0;entryX=0;entryY=0.5;entryDx=0;entryDy=0;entryPerimeter=0;" edge="1" parent="1" source="DHYdU_vS-8Hj54yX8ZzH-49" target="DHYdU_vS-8Hj54yX8ZzH-52">
          <mxGeometry width="50" height="50" relative="1" as="geometry">
            <mxPoint x="1310" y="190" as="sourcePoint" />
            <mxPoint x="1220" y="125" as="targetPoint" />
          </mxGeometry>
        </mxCell>
        <mxCell id="DHYdU_vS-8Hj54yX8ZzH-53" value="无账户" style="edgeLabel;html=1;align=center;verticalAlign=middle;resizable=0;points=[];" vertex="1" connectable="0" parent="DHYdU_vS-8Hj54yX8ZzH-51">
          <mxGeometry x="-0.0819" y="-1" relative="1" as="geometry">
            <mxPoint as="offset" />
          </mxGeometry>
        </mxCell>
        <mxCell id="DHYdU_vS-8Hj54yX8ZzH-52" value="注册" style="rounded=0;whiteSpace=wrap;html=1;" vertex="1" parent="1">
          <mxGeometry x="1230" y="113" width="80" height="24" as="geometry" />
        </mxCell>
        <mxCell id="DHYdU_vS-8Hj54yX8ZzH-56" value="" style="endArrow=classic;html=1;rounded=0;exitX=1;exitY=0.5;exitDx=0;exitDy=0;entryX=0;entryY=0.5;entryDx=0;entryDy=0;" edge="1" parent="1" source="DHYdU_vS-8Hj54yX8ZzH-52" target="DHYdU_vS-8Hj54yX8ZzH-57">
          <mxGeometry width="50" height="50" relative="1" as="geometry">
            <mxPoint x="1430" y="160" as="sourcePoint" />
            <mxPoint x="1420" y="125" as="targetPoint" />
          </mxGeometry>
        </mxCell>
        <mxCell id="DHYdU_vS-8Hj54yX8ZzH-57" value="保存账户信息" style="rounded=0;whiteSpace=wrap;html=1;" vertex="1" parent="1">
          <mxGeometry x="1410" y="113" width="80" height="24" as="geometry" />
        </mxCell>
        <mxCell id="DHYdU_vS-8Hj54yX8ZzH-59" value="" style="endArrow=none;html=1;rounded=0;exitX=0.5;exitY=0;exitDx=0;exitDy=0;" edge="1" parent="1" source="DHYdU_vS-8Hj54yX8ZzH-57">
          <mxGeometry width="50" height="50" relative="1" as="geometry">
            <mxPoint x="1440" y="80" as="sourcePoint" />
            <mxPoint x="1450" y="70" as="targetPoint" />
          </mxGeometry>
        </mxCell>
        <mxCell id="DHYdU_vS-8Hj54yX8ZzH-60" value="" style="endArrow=classic;html=1;rounded=0;entryX=1;entryY=0.25;entryDx=0;entryDy=0;" edge="1" parent="1" target="DHYdU_vS-8Hj54yX8ZzH-47">
          <mxGeometry width="50" height="50" relative="1" as="geometry">
            <mxPoint x="1450" y="70" as="sourcePoint" />
            <mxPoint x="1310" y="-20" as="targetPoint" />
          </mxGeometry>
        </mxCell>
        <mxCell id="DHYdU_vS-8Hj54yX8ZzH-61" value="" style="endArrow=classic;html=1;rounded=0;exitX=0.5;exitY=1;exitDx=0;exitDy=0;entryX=0.5;entryY=0;entryDx=0;entryDy=0;" edge="1" parent="1" source="DHYdU_vS-8Hj54yX8ZzH-49" target="DHYdU_vS-8Hj54yX8ZzH-75">
          <mxGeometry width="50" height="50" relative="1" as="geometry">
            <mxPoint x="1210" y="250" as="sourcePoint" />
            <mxPoint x="1160" y="180" as="targetPoint" />
          </mxGeometry>
        </mxCell>
        <mxCell id="DHYdU_vS-8Hj54yX8ZzH-63" value="" style="endArrow=classic;html=1;rounded=0;exitX=0;exitY=0.5;exitDx=0;exitDy=0;edgeStyle=orthogonalEdgeStyle;entryX=0.5;entryY=0;entryDx=0;entryDy=0;" edge="1" parent="1" source="DHYdU_vS-8Hj54yX8ZzH-49" target="DHYdU_vS-8Hj54yX8ZzH-41">
          <mxGeometry width="50" height="50" relative="1" as="geometry">
            <mxPoint x="1030" y="160" as="sourcePoint" />
            <mxPoint x="930" y="125" as="targetPoint" />
            <Array as="points">
              <mxPoint x="935" y="125" />
            </Array>
          </mxGeometry>
        </mxCell>
        <mxCell id="DHYdU_vS-8Hj54yX8ZzH-97" value="无操作" style="edgeLabel;html=1;align=center;verticalAlign=middle;resizable=0;points=[];" vertex="1" connectable="0" parent="DHYdU_vS-8Hj54yX8ZzH-63">
          <mxGeometry x="0.0299" y="-1" relative="1" as="geometry">
            <mxPoint as="offset" />
          </mxGeometry>
        </mxCell>
        <mxCell id="DHYdU_vS-8Hj54yX8ZzH-66" value="" style="endArrow=classic;html=1;rounded=0;exitX=0;exitY=0.5;exitDx=0;exitDy=0;edgeStyle=orthogonalEdgeStyle;entryX=0.5;entryY=0;entryDx=0;entryDy=0;" edge="1" parent="1" source="DHYdU_vS-8Hj54yX8ZzH-49" target="DHYdU_vS-8Hj54yX8ZzH-67">
          <mxGeometry width="50" height="50" relative="1" as="geometry">
            <mxPoint x="1030" y="230" as="sourcePoint" />
            <mxPoint x="980" y="310" as="targetPoint" />
          </mxGeometry>
        </mxCell>
        <mxCell id="DHYdU_vS-8Hj54yX8ZzH-67" value="图书种类更新" style="rounded=0;whiteSpace=wrap;html=1;" vertex="1" parent="1">
          <mxGeometry x="940" y="310" width="80" height="24" as="geometry" />
        </mxCell>
        <mxCell id="DHYdU_vS-8Hj54yX8ZzH-70" value="" style="endArrow=classic;html=1;rounded=0;exitX=0.5;exitY=1;exitDx=0;exitDy=0;edgeStyle=orthogonalEdgeStyle;entryX=0.5;entryY=0;entryDx=0;entryDy=0;" edge="1" parent="1" source="DHYdU_vS-8Hj54yX8ZzH-49" target="DHYdU_vS-8Hj54yX8ZzH-71">
          <mxGeometry width="50" height="50" relative="1" as="geometry">
            <mxPoint x="1020" y="210" as="sourcePoint" />
            <mxPoint x="1040" y="230" as="targetPoint" />
            <Array as="points">
              <mxPoint x="1159" y="150" />
              <mxPoint x="1041" y="150" />
              <mxPoint x="1041" y="160" />
            </Array>
          </mxGeometry>
        </mxCell>
        <mxCell id="DHYdU_vS-8Hj54yX8ZzH-71" value="图书更新" style="rounded=0;whiteSpace=wrap;html=1;" vertex="1" parent="1">
          <mxGeometry x="1000" y="236" width="80" height="24" as="geometry" />
        </mxCell>
        <mxCell id="DHYdU_vS-8Hj54yX8ZzH-72" value="" style="endArrow=classic;html=1;rounded=0;exitX=0.5;exitY=1;exitDx=0;exitDy=0;edgeStyle=orthogonalEdgeStyle;entryX=1;entryY=0;entryDx=0;entryDy=0;" edge="1" parent="1" source="DHYdU_vS-8Hj54yX8ZzH-67" target="DHYdU_vS-8Hj54yX8ZzH-41">
          <mxGeometry width="50" height="50" relative="1" as="geometry">
            <mxPoint x="1040" y="380" as="sourcePoint" />
            <mxPoint x="980" y="500" as="targetPoint" />
          </mxGeometry>
        </mxCell>
        <mxCell id="DHYdU_vS-8Hj54yX8ZzH-73" value="" style="endArrow=classic;html=1;rounded=0;exitX=0.5;exitY=1;exitDx=0;exitDy=0;edgeStyle=orthogonalEdgeStyle;entryX=1;entryY=0.5;entryDx=0;entryDy=0;" edge="1" parent="1" source="DHYdU_vS-8Hj54yX8ZzH-71" target="DHYdU_vS-8Hj54yX8ZzH-41">
          <mxGeometry width="50" height="50" relative="1" as="geometry">
            <mxPoint x="1070" y="380" as="sourcePoint" />
            <mxPoint x="990" y="490" as="targetPoint" />
            <Array as="points">
              <mxPoint x="1040" y="490" />
              <mxPoint x="950" y="490" />
            </Array>
          </mxGeometry>
        </mxCell>
        <mxCell id="DHYdU_vS-8Hj54yX8ZzH-75" value="添加借书信息" style="rounded=0;whiteSpace=wrap;html=1;" vertex="1" parent="1">
          <mxGeometry x="1120" y="190" width="80" height="24" as="geometry" />
        </mxCell>
        <mxCell id="DHYdU_vS-8Hj54yX8ZzH-76" value="" style="endArrow=classic;html=1;rounded=0;exitX=1;exitY=0.5;exitDx=0;exitDy=0;entryX=0;entryY=0.5;entryDx=0;entryDy=0;" edge="1" parent="1" source="DHYdU_vS-8Hj54yX8ZzH-75" target="DHYdU_vS-8Hj54yX8ZzH-77">
          <mxGeometry width="50" height="50" relative="1" as="geometry">
            <mxPoint x="1320" y="250" as="sourcePoint" />
            <mxPoint x="1410" y="200" as="targetPoint" />
          </mxGeometry>
        </mxCell>
        <mxCell id="DHYdU_vS-8Hj54yX8ZzH-77" value="验证积分" style="rounded=0;whiteSpace=wrap;html=1;" vertex="1" parent="1">
          <mxGeometry x="1420" y="190" width="80" height="24" as="geometry" />
        </mxCell>
        <mxCell id="DHYdU_vS-8Hj54yX8ZzH-78" value="" style="endArrow=classic;html=1;rounded=0;entryX=0.5;entryY=0;entryDx=0;entryDy=0;" edge="1" parent="1" target="DHYdU_vS-8Hj54yX8ZzH-79">
          <mxGeometry width="50" height="50" relative="1" as="geometry">
            <mxPoint x="1460" y="360" as="sourcePoint" />
            <mxPoint x="1460" y="290" as="targetPoint" />
          </mxGeometry>
        </mxCell>
        <mxCell id="DHYdU_vS-8Hj54yX8ZzH-79" value="更新借书信息" style="rounded=0;whiteSpace=wrap;html=1;" vertex="1" parent="1">
          <mxGeometry x="1420" y="400" width="80" height="24" as="geometry" />
        </mxCell>
        <mxCell id="DHYdU_vS-8Hj54yX8ZzH-80" value="" style="rhombus;whiteSpace=wrap;html=1;" vertex="1" parent="1">
          <mxGeometry x="1440" y="250" width="40" height="40" as="geometry" />
        </mxCell>
        <mxCell id="DHYdU_vS-8Hj54yX8ZzH-81" value="" style="endArrow=classic;html=1;rounded=0;exitX=0.5;exitY=1;exitDx=0;exitDy=0;entryX=0.5;entryY=0;entryDx=0;entryDy=0;" edge="1" parent="1" source="DHYdU_vS-8Hj54yX8ZzH-77" target="DHYdU_vS-8Hj54yX8ZzH-80">
          <mxGeometry width="50" height="50" relative="1" as="geometry">
            <mxPoint x="1530" y="250" as="sourcePoint" />
            <mxPoint x="1580" y="200" as="targetPoint" />
          </mxGeometry>
        </mxCell>
        <mxCell id="DHYdU_vS-8Hj54yX8ZzH-83" value="" style="endArrow=classic;html=1;rounded=0;exitX=1;exitY=0.5;exitDx=0;exitDy=0;entryX=0;entryY=0.5;entryDx=0;entryDy=0;" edge="1" parent="1" source="DHYdU_vS-8Hj54yX8ZzH-80" target="DHYdU_vS-8Hj54yX8ZzH-84">
          <mxGeometry width="50" height="50" relative="1" as="geometry">
            <mxPoint x="1610" y="280" as="sourcePoint" />
            <mxPoint x="1640" y="270" as="targetPoint" />
          </mxGeometry>
        </mxCell>
        <mxCell id="DHYdU_vS-8Hj54yX8ZzH-88" value="不够" style="edgeLabel;html=1;align=center;verticalAlign=middle;resizable=0;points=[];" vertex="1" connectable="0" parent="DHYdU_vS-8Hj54yX8ZzH-83">
          <mxGeometry x="-0.0335" y="-3" relative="1" as="geometry">
            <mxPoint as="offset" />
          </mxGeometry>
        </mxCell>
        <mxCell id="DHYdU_vS-8Hj54yX8ZzH-84" value="充值积分" style="rounded=0;whiteSpace=wrap;html=1;" vertex="1" parent="1">
          <mxGeometry x="1640" y="256" width="80" height="24" as="geometry" />
        </mxCell>
        <mxCell id="DHYdU_vS-8Hj54yX8ZzH-85" value="" style="endArrow=classic;html=1;rounded=0;exitX=0.5;exitY=1;exitDx=0;exitDy=0;edgeStyle=orthogonalEdgeStyle;entryX=1;entryY=0.5;entryDx=0;entryDy=0;" edge="1" parent="1" source="DHYdU_vS-8Hj54yX8ZzH-84" target="DHYdU_vS-8Hj54yX8ZzH-87">
          <mxGeometry width="50" height="50" relative="1" as="geometry">
            <mxPoint x="1730" y="380" as="sourcePoint" />
            <mxPoint x="1500" y="350" as="targetPoint" />
            <Array as="points">
              <mxPoint x="1680" y="340" />
            </Array>
          </mxGeometry>
        </mxCell>
        <mxCell id="DHYdU_vS-8Hj54yX8ZzH-86" value="" style="endArrow=classic;html=1;rounded=0;exitX=0.5;exitY=1;exitDx=0;exitDy=0;" edge="1" parent="1" source="DHYdU_vS-8Hj54yX8ZzH-80">
          <mxGeometry width="50" height="50" relative="1" as="geometry">
            <mxPoint x="1330" y="370" as="sourcePoint" />
            <mxPoint x="1460" y="320" as="targetPoint" />
          </mxGeometry>
        </mxCell>
        <mxCell id="DHYdU_vS-8Hj54yX8ZzH-87" value="" style="rhombus;whiteSpace=wrap;html=1;" vertex="1" parent="1">
          <mxGeometry x="1440" y="320" width="40" height="40" as="geometry" />
        </mxCell>
        <mxCell id="DHYdU_vS-8Hj54yX8ZzH-89" value="" style="endArrow=classic;html=1;rounded=0;exitX=0;exitY=0.5;exitDx=0;exitDy=0;entryX=1;entryY=0.5;entryDx=0;entryDy=0;" edge="1" parent="1" source="DHYdU_vS-8Hj54yX8ZzH-79" target="DHYdU_vS-8Hj54yX8ZzH-90">
          <mxGeometry width="50" height="50" relative="1" as="geometry">
            <mxPoint x="1140" y="430" as="sourcePoint" />
            <mxPoint x="1200" y="412" as="targetPoint" />
          </mxGeometry>
        </mxCell>
        <mxCell id="DHYdU_vS-8Hj54yX8ZzH-90" value="添加还书信息" style="rounded=0;whiteSpace=wrap;html=1;" vertex="1" parent="1">
          <mxGeometry x="1119" y="400" width="80" height="24" as="geometry" />
        </mxCell>
        <mxCell id="DHYdU_vS-8Hj54yX8ZzH-91" value="" style="endArrow=classic;html=1;rounded=0;exitX=0.5;exitY=1;exitDx=0;exitDy=0;edgeStyle=orthogonalEdgeStyle;entryX=0;entryY=0.5;entryDx=0;entryDy=0;" edge="1" parent="1" source="DHYdU_vS-8Hj54yX8ZzH-90" target="DHYdU_vS-8Hj54yX8ZzH-92">
          <mxGeometry width="50" height="50" relative="1" as="geometry">
            <mxPoint x="1190" y="560" as="sourcePoint" />
            <mxPoint x="1420" y="480" as="targetPoint" />
            <Array as="points">
              <mxPoint x="1159" y="480" />
              <mxPoint x="1430" y="480" />
            </Array>
          </mxGeometry>
        </mxCell>
        <mxCell id="DHYdU_vS-8Hj54yX8ZzH-92" value="更新还书信息" style="rounded=0;whiteSpace=wrap;html=1;" vertex="1" parent="1">
          <mxGeometry x="1450" y="464" width="80" height="30" as="geometry" />
        </mxCell>
        <mxCell id="DHYdU_vS-8Hj54yX8ZzH-94" value="" style="endArrow=classic;html=1;rounded=0;exitX=0.5;exitY=1;exitDx=0;exitDy=0;edgeStyle=orthogonalEdgeStyle;entryX=1;entryY=1;entryDx=0;entryDy=0;" edge="1" parent="1" source="DHYdU_vS-8Hj54yX8ZzH-92" target="DHYdU_vS-8Hj54yX8ZzH-41">
          <mxGeometry width="50" height="50" relative="1" as="geometry">
            <mxPoint x="1560" y="580" as="sourcePoint" />
            <mxPoint x="1490" y="520" as="targetPoint" />
          </mxGeometry>
        </mxCell>
        <mxCell id="DHYdU_vS-8Hj54yX8ZzH-99" value="" style="endArrow=none;html=1;rounded=0;exitX=0.541;exitY=1;exitDx=0;exitDy=0;exitPerimeter=0;" edge="1" parent="1" source="DHYdU_vS-8Hj54yX8ZzH-95">
          <mxGeometry width="50" height="50" relative="1" as="geometry">
            <mxPoint x="1310" y="50" as="sourcePoint" />
            <mxPoint x="1360" as="targetPoint" />
          </mxGeometry>
        </mxCell>
        <mxCell id="DHYdU_vS-8Hj54yX8ZzH-100" value="" style="endArrow=none;html=1;rounded=0;exitX=0.824;exitY=1.005;exitDx=0;exitDy=0;exitPerimeter=0;" edge="1" parent="1" source="DHYdU_vS-8Hj54yX8ZzH-95">
          <mxGeometry width="50" height="50" relative="1" as="geometry">
            <mxPoint x="1550" y="50" as="sourcePoint" />
            <mxPoint x="1600" as="targetPoint" />
          </mxGeometry>
        </mxCell>
        <mxCell id="DHYdU_vS-8Hj54yX8ZzH-101" value="图书馆书籍管理系统" style="rounded=0;whiteSpace=wrap;html=1;" vertex="1" parent="1">
          <mxGeometry x="690" y="630" width="160" height="40" as="geometry" />
        </mxCell>
        <mxCell id="DHYdU_vS-8Hj54yX8ZzH-102" value="" style="endArrow=none;html=1;rounded=0;entryX=0.5;entryY=1;entryDx=0;entryDy=0;" edge="1" parent="1" target="DHYdU_vS-8Hj54yX8ZzH-101">
          <mxGeometry width="50" height="50" relative="1" as="geometry">
            <mxPoint x="770" y="720" as="sourcePoint" />
            <mxPoint x="420" y="740" as="targetPoint" />
          </mxGeometry>
        </mxCell>
        <mxCell id="DHYdU_vS-8Hj54yX8ZzH-105" value="管&lt;div&gt;理&lt;/div&gt;&lt;div&gt;员&lt;/div&gt;&lt;div&gt;账&lt;/div&gt;&lt;div&gt;户&lt;/div&gt;&lt;div&gt;管&lt;/div&gt;&lt;div&gt;理&lt;/div&gt;" style="rounded=0;whiteSpace=wrap;html=1;" vertex="1" parent="1">
          <mxGeometry x="220" y="740" width="40" height="150" as="geometry" />
        </mxCell>
        <mxCell id="DHYdU_vS-8Hj54yX8ZzH-106" value="图&lt;div&gt;书&lt;/div&gt;&lt;div&gt;种&lt;/div&gt;&lt;div&gt;类&lt;/div&gt;&lt;div&gt;管&lt;/div&gt;&lt;div&gt;理&lt;/div&gt;" style="rounded=0;whiteSpace=wrap;html=1;" vertex="1" parent="1">
          <mxGeometry x="420" y="740" width="40" height="150" as="geometry" />
        </mxCell>
        <mxCell id="DHYdU_vS-8Hj54yX8ZzH-107" value="图&lt;div&gt;书&lt;/div&gt;&lt;div&gt;管&lt;/div&gt;&lt;div&gt;理&lt;/div&gt;" style="rounded=0;whiteSpace=wrap;html=1;" vertex="1" parent="1">
          <mxGeometry x="680" y="740" width="40" height="150" as="geometry" />
        </mxCell>
        <mxCell id="DHYdU_vS-8Hj54yX8ZzH-108" value="借&lt;div&gt;书&lt;/div&gt;&lt;div&gt;管&lt;/div&gt;&lt;div&gt;理&lt;/div&gt;" style="rounded=0;whiteSpace=wrap;html=1;" vertex="1" parent="1">
          <mxGeometry x="915" y="740" width="40" height="150" as="geometry" />
        </mxCell>
        <mxCell id="DHYdU_vS-8Hj54yX8ZzH-109" value="还&lt;div&gt;书&lt;/div&gt;&lt;div&gt;管&lt;/div&gt;&lt;div&gt;理&lt;/div&gt;" style="rounded=0;whiteSpace=wrap;html=1;" vertex="1" parent="1">
          <mxGeometry x="1080" y="740" width="40" height="150" as="geometry" />
        </mxCell>
        <mxCell id="DHYdU_vS-8Hj54yX8ZzH-110" value="会&lt;div&gt;员&lt;/div&gt;&lt;div&gt;管&lt;/div&gt;&lt;div&gt;理&lt;/div&gt;" style="rounded=0;whiteSpace=wrap;html=1;" vertex="1" parent="1">
          <mxGeometry x="1280" y="740" width="40" height="150" as="geometry" />
        </mxCell>
        <mxCell id="DHYdU_vS-8Hj54yX8ZzH-111" value="" style="endArrow=none;html=1;rounded=0;" edge="1" parent="1">
          <mxGeometry width="50" height="50" relative="1" as="geometry">
            <mxPoint x="240" y="720" as="sourcePoint" />
            <mxPoint x="1300" y="720" as="targetPoint" />
          </mxGeometry>
        </mxCell>
        <mxCell id="DHYdU_vS-8Hj54yX8ZzH-113" value="" style="endArrow=classic;html=1;rounded=0;entryX=0.5;entryY=0;entryDx=0;entryDy=0;" edge="1" parent="1" target="DHYdU_vS-8Hj54yX8ZzH-105">
          <mxGeometry width="50" height="50" relative="1" as="geometry">
            <mxPoint x="240" y="720" as="sourcePoint" />
            <mxPoint x="130" y="750" as="targetPoint" />
          </mxGeometry>
        </mxCell>
        <mxCell id="DHYdU_vS-8Hj54yX8ZzH-114" value="" style="endArrow=classic;html=1;rounded=0;entryX=0.5;entryY=0;entryDx=0;entryDy=0;" edge="1" parent="1" target="DHYdU_vS-8Hj54yX8ZzH-106">
          <mxGeometry width="50" height="50" relative="1" as="geometry">
            <mxPoint x="440" y="720" as="sourcePoint" />
            <mxPoint x="140" y="760" as="targetPoint" />
          </mxGeometry>
        </mxCell>
        <mxCell id="DHYdU_vS-8Hj54yX8ZzH-136" value="" style="endArrow=none;html=1;rounded=0;entryX=0.5;entryY=1;entryDx=0;entryDy=0;" edge="1" parent="1" target="DHYdU_vS-8Hj54yX8ZzH-105">
          <mxGeometry width="50" height="50" relative="1" as="geometry">
            <mxPoint x="240" y="910" as="sourcePoint" />
            <mxPoint x="170" y="940" as="targetPoint" />
          </mxGeometry>
        </mxCell>
        <mxCell id="DHYdU_vS-8Hj54yX8ZzH-137" value="" style="endArrow=none;html=1;rounded=0;" edge="1" parent="1">
          <mxGeometry width="50" height="50" relative="1" as="geometry">
            <mxPoint x="180" y="910" as="sourcePoint" />
            <mxPoint x="290" y="910" as="targetPoint" />
          </mxGeometry>
        </mxCell>
        <mxCell id="DHYdU_vS-8Hj54yX8ZzH-138" value="添加管理员" style="rounded=0;whiteSpace=wrap;html=1;" vertex="1" parent="1">
          <mxGeometry x="160" y="930" width="40" height="150" as="geometry" />
        </mxCell>
        <mxCell id="DHYdU_vS-8Hj54yX8ZzH-139" value="删除管理员&lt;span style=&quot;color: rgba(0, 0, 0, 0); font-family: monospace; font-size: 0px; text-align: start; text-wrap: nowrap;&quot;&gt;%3CmxGraphModel%3E%3Croot%3E%3CmxCell%20id%3D%220%22%2F%3E%3CmxCell%20id%3D%221%22%20parent%3D%220%22%2F%3E%3CmxCell%20id%3D%222%22%20value%3D%22%E6%B7%BB%E5%8A%A0%E7%AE%A1%E7%90%86%E5%91%98%22%20style%3D%22rounded%3D0%3BwhiteSpace%3Dwrap%3Bhtml%3D1%3B%22%20vertex%3D%221%22%20parent%3D%221%22%3E%3CmxGeometry%20x%3D%22180%22%20y%3D%22930%22%20width%3D%2240%22%20height%3D%22150%22%20as%3D%22geometry%22%2F%3E%3C%2FmxCell%3E%3C%2Froot%3E%3C%2FmxGraphModel%3E&lt;/span&gt;" style="rounded=0;whiteSpace=wrap;html=1;" vertex="1" parent="1">
          <mxGeometry x="220" y="930" width="40" height="150" as="geometry" />
        </mxCell>
        <mxCell id="DHYdU_vS-8Hj54yX8ZzH-140" value="更新管理员信息&lt;span style=&quot;color: rgba(0, 0, 0, 0); font-family: monospace; font-size: 0px; text-align: start; text-wrap: nowrap;&quot;&gt;%3CmxGraphModel%3E%3Croot%3E%3CmxCell%20id%3D%220%22%2F%3E%3CmxCell%20id%3D%221%22%20parent%3D%220%22%2F%3E%3CmxCell%20id%3D%222%22%20value%3D%22%E6%B7%BB%E5%8A%A0%E7%AE%A1%E7%90%86%E5%91%98%22%20style%3D%22rounded%3D0%3BwhiteSpace%3Dwrap%3Bhtml%3D1%3B%22%20vertex%3D%221%22%20parent%3D%221%22%3E%3CmxGeometry%20x%3D%22180%22%20y%3D%22930%22%20width%3D%2240%22%20height%3D%22150%22%20as%3D%22geometry%22%2F%3E%3C%2FmxCell%3E%3C%2Froot%3E%3C%2FmxGraphModel%3E&lt;/span&gt;" style="rounded=0;whiteSpace=wrap;html=1;" vertex="1" parent="1">
          <mxGeometry x="270" y="930" width="40" height="150" as="geometry" />
        </mxCell>
        <mxCell id="DHYdU_vS-8Hj54yX8ZzH-141" value="添加图书种类&lt;span style=&quot;color: rgba(0, 0, 0, 0); font-family: monospace; font-size: 0px; text-align: start; text-wrap: nowrap;&quot;&gt;%3CmxGraphModel%3E%3Croot%3E%3CmxCell%20id%3D%220%22%2F%3E%3CmxCell%20id%3D%221%22%20parent%3D%220%22%2F%3E%3CmxCell%20id%3D%222%22%20value%3D%22%E6%9B%B4%E6%96%B0%E7%AE%A1%E7%90%86%E5%91%98%E4%BF%A1%E6%81%AF%26lt%3Bspan%20style%3D%26quot%3Bcolor%3A%20rgba(0%2C%200%2C%200%2C%200)%3B%20font-family%3A%20monospace%3B%20font-size%3A%200px%3B%20text-align%3A%20start%3B%20text-wrap%3A%20nowrap%3B%26quot%3B%26gt%3B%253CmxGraphModel%253E%253Croot%253E%253CmxCell%2520id%253D%25220%2522%252F%253E%253CmxCell%2520id%253D%25221%2522%2520parent%253D%25220%2522%252F%253E%253CmxCell%2520id%253D%25222%2522%2520value%253D%2522%25E6%25B7%25BB%25E5%258A%25A0%25E7%25AE%25A1%25E7%2590%2586%25E5%2591%2598%2522%2520style%253D%2522rounded%253D0%253BwhiteSpace%253Dwrap%253Bhtml%253D1%253B%2522%2520vertex%253D%25221%2522%2520parent%253D%25221%2522%253E%253CmxGeometry%2520x%253D%2522180%2522%2520y%253D%2522930%2522%2520width%253D%252240%2522%2520height%253D%2522150%2522%2520as%253D%2522geometry%2522%252F%253E%253C%252FmxCell%253E%253C%252Froot%253E%253C%252FmxGraphModel%253E%26lt%3B%2Fspan%26gt%3B%22%20style%3D%22rounded%3D0%3BwhiteSpace%3Dwrap%3Bhtml%3D1%3B%22%20vertex%3D%221%22%20parent%3D%221%22%3E%3CmxGeometry%20x%3D%22270%22%20y%3D%22930%22%20width%3D%2240%22%20height%3D%22150%22%20as%3D%22geometry%22%2F%3E%3C%2FmxCell%3E%3C%2Froot%3E%3C%2FmxGraphModel%3E&lt;/span&gt;" style="rounded=0;whiteSpace=wrap;html=1;" vertex="1" parent="1">
          <mxGeometry x="330" y="930" width="40" height="150" as="geometry" />
        </mxCell>
        <mxCell id="DHYdU_vS-8Hj54yX8ZzH-142" value="编辑图书种类&lt;span style=&quot;color: rgba(0, 0, 0, 0); font-family: monospace; font-size: 0px; text-align: start; text-wrap: nowrap;&quot;&gt;%3CmxGraphModel%3E%3Croot%3E%3CmxCell%20id%3D%220%22%2F%3E%3CmxCell%20id%3D%221%22%20parent%3D%220%22%2F%3E%3CmxCell%20id%3D%222%22%20value%3D%22%E6%9B%B4%E6%96%B0%E7%AE%A1%E7%90%86%E5%91%98%E4%BF%A1%E6%81%AF%26lt%3Bspan%20style%3D%26quot%3Bcolor%3A%20rgba(0%2C%200%2C%200%2C%200)%3B%20font-family%3A%20monospace%3B%20font-size%3A%200px%3B%20text-align%3A%20start%3B%20text-wrap%3A%20nowrap%3B%26quot%3B%26gt%3B%253CmxGraphModel%253E%253Croot%253E%253CmxCell%2520id%253D%25220%2522%252F%253E%253CmxCell%2520id%253D%25221%2522%2520parent%253D%25220%2522%252F%253E%253CmxCell%2520id%253D%25222%2522%2520value%253D%2522%25E6%25B7%25BB%25E5%258A%25A0%25E7%25AE%25A1%25E7%2590%2586%25E5%2591%2598%2522%2520style%253D%2522rounded%253D0%253BwhiteSpace%253Dwrap%253Bhtml%253D1%253B%2522%2520vertex%253D%25221%2522%2520parent%253D%25221%2522%253E%253CmxGeometry%2520x%253D%2522180%2522%2520y%253D%2522930%2522%2520width%253D%252240%2522%2520height%253D%2522150%2522%2520as%253D%2522geometry%2522%252F%253E%253C%252FmxCell%253E%253C%252Froot%253E%253C%252FmxGraphModel%253E%26lt%3B%2Fspan%26gt%3B%22%20style%3D%22rounded%3D0%3BwhiteSpace%3Dwrap%3Bhtml%3D1%3B%22%20vertex%3D%221%22%20parent%3D%221%22%3E%3CmxGeometry%20x%3D%22270%22%20y%3D%22930%22%20width%3D%2240%22%20height%3D%22150%22%20as%3D%22geometry%22%2F%3E%3C%2FmxCell%3E%3C%2Froot%3E%3C%2FmxGraphModel%3E&lt;/span&gt;" style="rounded=0;whiteSpace=wrap;html=1;" vertex="1" parent="1">
          <mxGeometry x="390" y="930" width="40" height="150" as="geometry" />
        </mxCell>
        <mxCell id="DHYdU_vS-8Hj54yX8ZzH-143" value="删除图书种类&lt;span style=&quot;color: rgba(0, 0, 0, 0); font-family: monospace; font-size: 0px; text-align: start; text-wrap: nowrap;&quot;&gt;%3CmxGraphModel%3E%3Croot%3E%3CmxCell%20id%3D%220%22%2F%3E%3CmxCell%20id%3D%221%22%20parent%3D%220%22%2F%3E%3CmxCell%20id%3D%222%22%20value%3D%22%E6%9B%B4%E6%96%B0%E7%AE%A1%E7%90%86%E5%91%98%E4%BF%A1%E6%81%AF%26lt%3Bspan%20style%3D%26quot%3Bcolor%3A%20rgba(0%2C%200%2C%200%2C%200)%3B%20font-family%3A%20monospace%3B%20font-size%3A%200px%3B%20text-align%3A%20start%3B%20text-wrap%3A%20nowrap%3B%26quot%3B%26gt%3B%253CmxGraphModel%253E%253Croot%253E%253CmxCell%2520id%253D%25220%2522%252F%253E%253CmxCell%2520id%253D%25221%2522%2520parent%253D%25220%2522%252F%253E%253CmxCell%2520id%253D%25222%2522%2520value%253D%2522%25E6%25B7%25BB%25E5%258A%25A0%25E7%25AE%25A1%25E7%2590%2586%25E5%2591%2598%2522%2520style%253D%2522rounded%253D0%253BwhiteSpace%253Dwrap%253Bhtml%253D1%253B%2522%2520vertex%253D%25221%2522%2520parent%253D%25221%2522%253E%253CmxGeometry%2520x%253D%2522180%2522%2520y%253D%2522930%2522%2520width%253D%252240%2522%2520height%253D%2522150%2522%2520as%253D%2522geometry%2522%252F%253E%253C%252FmxCell%253E%253C%252Froot%253E%253C%252FmxGraphModel%253E%26lt%3B%2Fspan%26gt%3B%22%20style%3D%22rounded%3D0%3BwhiteSpace%3Dwrap%3Bhtml%3D1%3B%22%20vertex%3D%221%22%20parent%3D%221%22%3E%3CmxGeometry%20x%3D%22270%22%20y%3D%22930%22%20width%3D%2240%22%20height%3D%22150%22%20as%3D%22geometry%22%2F%3E%3C%2FmxCell%3E%3C%2Froot%3E%3C%2FmxGraphModel%3E&lt;/span&gt;" style="rounded=0;whiteSpace=wrap;html=1;" vertex="1" parent="1">
          <mxGeometry x="450" y="930" width="40" height="150" as="geometry" />
        </mxCell>
        <mxCell id="DHYdU_vS-8Hj54yX8ZzH-144" value="查询图书种类&lt;span style=&quot;color: rgba(0, 0, 0, 0); font-family: monospace; font-size: 0px; text-align: start; text-wrap: nowrap;&quot;&gt;%3CmxGraphModel%3E%3Croot%3E%3CmxCell%20id%3D%220%22%2F%3E%3CmxCell%20id%3D%221%22%20parent%3D%220%22%2F%3E%3CmxCell%20id%3D%222%22%20value%3D%22%E6%9B%B4%E6%96%B0%E7%AE%A1%E7%90%86%E5%91%98%E4%BF%A1%E6%81%AF%26lt%3Bspan%20style%3D%26quot%3Bcolor%3A%20rgba(0%2C%200%2C%200%2C%200)%3B%20font-family%3A%20monospace%3B%20font-size%3A%200px%3B%20text-align%3A%20start%3B%20text-wrap%3A%20nowrap%3B%26quot%3B%26gt%3B%253CmxGraphModel%253E%253Croot%253E%253CmxCell%2520id%253D%25220%2522%252F%253E%253CmxCell%2520id%253D%25221%2522%2520parent%253D%25220%2522%252F%253E%253CmxCell%2520id%253D%25222%2522%2520value%253D%2522%25E6%25B7%25BB%25E5%258A%25A0%25E7%25AE%25A1%25E7%2590%2586%25E5%2591%2598%2522%2520style%253D%2522rounded%253D0%253BwhiteSpace%253Dwrap%253Bhtml%253D1%253B%2522%2520vertex%253D%25221%2522%2520parent%253D%25221%2522%253E%253CmxGeometry%2520x%253D%2522180%2522%2520y%253D%2522930%2522%2520width%253D%252240%2522%2520height%253D%2522150%2522%2520as%253D%2522geometry%2522%252F%253E%253C%252FmxCell%253E%253C%252Froot%253E%253C%252FmxGraphModel%253E%26lt%3B%2Fspan%26gt%3B%22%20style%3D%22rounded%3D0%3BwhiteSpace%3Dwrap%3Bhtml%3D1%3B%22%20vertex%3D%221%22%20parent%3D%221%22%3E%3CmxGeometry%20x%3D%22270%22%20y%3D%22930%22%20width%3D%2240%22%20height%3D%22150%22%20as%3D%22geometry%22%2F%3E%3C%2FmxCell%3E%3C%2Froot%3E%3C%2FmxGraphModel%3E&lt;/span&gt;" style="rounded=0;whiteSpace=wrap;html=1;" vertex="1" parent="1">
          <mxGeometry x="510" y="930" width="40" height="150" as="geometry" />
        </mxCell>
        <mxCell id="DHYdU_vS-8Hj54yX8ZzH-145" value="添加图书&lt;span style=&quot;color: rgba(0, 0, 0, 0); font-family: monospace; font-size: 0px; text-align: start; text-wrap: nowrap;&quot;&gt;%3CmxGraphModel%3E%3Croot%3E%3CmxCell%20id%3D%220%22%2F%3E%3CmxCell%20id%3D%221%22%20parent%3D%220%22%2F%3E%3CmxCell%20id%3D%222%22%20value%3D%22%E6%9B%B4%E6%96%B0%E7%AE%A1%E7%90%86%E5%91%98%E4%BF%A1%E6%81%AF%26lt%3Bspan%20style%3D%26quot%3Bcolor%3A%20rgba(0%2C%200%2C%200%2C%200)%3B%20font-family%3A%20monospace%3B%20font-size%3A%200px%3B%20text-align%3A%20start%3B%20text-wrap%3A%20nowrap%3B%26quot%3B%26gt%3B%253CmxGraphModel%253E%253Croot%253E%253CmxCell%2520id%253D%25220%2522%252F%253E%253CmxCell%2520id%253D%25221%2522%2520parent%253D%25220%2522%252F%253E%253CmxCell%2520id%253D%25222%2522%2520value%253D%2522%25E6%25B7%25BB%25E5%258A%25A0%25E7%25AE%25A1%25E7%2590%2586%25E5%2591%2598%2522%2520style%253D%2522rounded%253D0%253BwhiteSpace%253Dwrap%253Bhtml%253D1%253B%2522%2520vertex%253D%25221%2522%2520parent%253D%25221%2522%253E%253CmxGeometry%2520x%253D%2522180%2522%2520y%253D%2522930%2522%2520width%253D%252240%2522%2520height%253D%2522150%2522%2520as%253D%2522geometry%2522%252F%253E%253C%252FmxCell%253E%253C%252Froot%253E%253C%252FmxGraphModel%253E%26lt%3B%2Fspan%26gt%3B%22%20style%3D%22rounded%3D0%3BwhiteSpace%3Dwrap%3Bhtml%3D1%3B%22%20vertex%3D%221%22%20parent%3D%221%22%3E%3CmxGeometry%20x%3D%22270%22%20y%3D%22930%22%20width%3D%2240%22%20height%3D%22150%22%20as%3D%22geometry%22%2F%3E%3C%2FmxCell%3E%3C%2Froot%3E%3C%2FmxGraphModel%3E&lt;/span&gt;" style="rounded=0;whiteSpace=wrap;html=1;" vertex="1" parent="1">
          <mxGeometry x="580" y="930" width="40" height="150" as="geometry" />
        </mxCell>
        <mxCell id="DHYdU_vS-8Hj54yX8ZzH-146" value="删除图书&lt;span style=&quot;color: rgba(0, 0, 0, 0); font-family: monospace; font-size: 0px; text-align: start; text-wrap: nowrap;&quot;&gt;%3CmxGraphModel%3E%3Croot%3E%3CmxCell%20id%3D%220%22%2F%3E%3CmxCell%20id%3D%221%22%20parent%3D%220%22%2F%3E%3CmxCell%20id%3D%222%22%20value%3D%22%E6%9B%B4%E6%96%B0%E7%AE%A1%E7%90%86%E5%91%98%E4%BF%A1%E6%81%AF%26lt%3Bspan%20style%3D%26quot%3Bcolor%3A%20rgba(0%2C%200%2C%200%2C%200)%3B%20font-family%3A%20monospace%3B%20font-size%3A%200px%3B%20text-align%3A%20start%3B%20text-wrap%3A%20nowrap%3B%26quot%3B%26gt%3B%253CmxGraphModel%253E%253Croot%253E%253CmxCell%2520id%253D%25220%2522%252F%253E%253CmxCell%2520id%253D%25221%2522%2520parent%253D%25220%2522%252F%253E%253CmxCell%2520id%253D%25222%2522%2520value%253D%2522%25E6%25B7%25BB%25E5%258A%25A0%25E7%25AE%25A1%25E7%2590%2586%25E5%2591%2598%2522%2520style%253D%2522rounded%253D0%253BwhiteSpace%253Dwrap%253Bhtml%253D1%253B%2522%2520vertex%253D%25221%2522%2520parent%253D%25221%2522%253E%253CmxGeometry%2520x%253D%2522180%2522%2520y%253D%2522930%2522%2520width%253D%252240%2522%2520height%253D%2522150%2522%2520as%253D%2522geometry%2522%252F%253E%253C%252FmxCell%253E%253C%252Froot%253E%253C%252FmxGraphModel%253E%26lt%3B%2Fspan%26gt%3B%22%20style%3D%22rounded%3D0%3BwhiteSpace%3Dwrap%3Bhtml%3D1%3B%22%20vertex%3D%221%22%20parent%3D%221%22%3E%3CmxGeometry%20x%3D%22270%22%20y%3D%22930%22%20width%3D%2240%22%20height%3D%22150%22%20as%3D%22geometry%22%2F%3E%3C%2FmxCell%3E%3C%2Froot%3E%3C%2FmxGraphModel%3E&lt;/span&gt;" style="rounded=0;whiteSpace=wrap;html=1;" vertex="1" parent="1">
          <mxGeometry x="630" y="930" width="40" height="150" as="geometry" />
        </mxCell>
        <mxCell id="DHYdU_vS-8Hj54yX8ZzH-147" value="编辑图书&lt;span style=&quot;color: rgba(0, 0, 0, 0); font-family: monospace; font-size: 0px; text-align: start; text-wrap: nowrap;&quot;&gt;%3CmxGraphModel%3E%3Croot%3E%3CmxCell%20id%3D%220%22%2F%3E%3CmxCell%20id%3D%221%22%20parent%3D%220%22%2F%3E%3CmxCell%20id%3D%222%22%20value%3D%22%E6%9B%B4%E6%96%B0%E7%AE%A1%E7%90%86%E5%91%98%E4%BF%A1%E6%81%AF%26lt%3Bspan%20style%3D%26quot%3Bcolor%3A%20rgba(0%2C%200%2C%200%2C%200)%3B%20font-family%3A%20monospace%3B%20font-size%3A%200px%3B%20text-align%3A%20start%3B%20text-wrap%3A%20nowrap%3B%26quot%3B%26gt%3B%253CmxGraphModel%253E%253Croot%253E%253CmxCell%2520id%253D%25220%2522%252F%253E%253CmxCell%2520id%253D%25221%2522%2520parent%253D%25220%2522%252F%253E%253CmxCell%2520id%253D%25222%2522%2520value%253D%2522%25E6%25B7%25BB%25E5%258A%25A0%25E7%25AE%25A1%25E7%2590%2586%25E5%2591%2598%2522%2520style%253D%2522rounded%253D0%253BwhiteSpace%253Dwrap%253Bhtml%253D1%253B%2522%2520vertex%253D%25221%2522%2520parent%253D%25221%2522%253E%253CmxGeometry%2520x%253D%2522180%2522%2520y%253D%2522930%2522%2520width%253D%252240%2522%2520height%253D%2522150%2522%2520as%253D%2522geometry%2522%252F%253E%253C%252FmxCell%253E%253C%252Froot%253E%253C%252FmxGraphModel%253E%26lt%3B%2Fspan%26gt%3B%22%20style%3D%22rounded%3D0%3BwhiteSpace%3Dwrap%3Bhtml%3D1%3B%22%20vertex%3D%221%22%20parent%3D%221%22%3E%3CmxGeometry%20x%3D%22270%22%20y%3D%22930%22%20width%3D%2240%22%20height%3D%22150%22%20as%3D%22geometry%22%2F%3E%3C%2FmxCell%3E%3C%2Froot%3E%3C%2FmxGraphModel%3E&lt;/span&gt;" style="rounded=0;whiteSpace=wrap;html=1;" vertex="1" parent="1">
          <mxGeometry x="680" y="930" width="40" height="150" as="geometry" />
        </mxCell>
        <mxCell id="DHYdU_vS-8Hj54yX8ZzH-148" value="查询图书&lt;span style=&quot;color: rgba(0, 0, 0, 0); font-family: monospace; font-size: 0px; text-align: start; text-wrap: nowrap;&quot;&gt;%3CmxGraphModel%3E%3Croot%3E%3CmxCell%20id%3D%220%22%2F%3E%3CmxCell%20id%3D%221%22%20parent%3D%220%22%2F%3E%3CmxCell%20id%3D%222%22%20value%3D%22%E6%9B%B4%E6%96%B0%E7%AE%A1%E7%90%86%E5%91%98%E4%BF%A1%E6%81%AF%26lt%3Bspan%20style%3D%26quot%3Bcolor%3A%20rgba(0%2C%200%2C%200%2C%200)%3B%20font-family%3A%20monospace%3B%20font-size%3A%200px%3B%20text-align%3A%20start%3B%20text-wrap%3A%20nowrap%3B%26quot%3B%26gt%3B%253CmxGraphModel%253E%253Croot%253E%253CmxCell%2520id%253D%25220%2522%252F%253E%253CmxCell%2520id%253D%25221%2522%2520parent%253D%25220%2522%252F%253E%253CmxCell%2520id%253D%25222%2522%2520value%253D%2522%25E6%25B7%25BB%25E5%258A%25A0%25E7%25AE%25A1%25E7%2590%2586%25E5%2591%2598%2522%2520style%253D%2522rounded%253D0%253BwhiteSpace%253Dwrap%253Bhtml%253D1%253B%2522%2520vertex%253D%25221%2522%2520parent%253D%25221%2522%253E%253CmxGeometry%2520x%253D%2522180%2522%2520y%253D%2522930%2522%2520width%253D%252240%2522%2520height%253D%2522150%2522%2520as%253D%2522geometry%2522%252F%253E%253C%252FmxCell%253E%253C%252Froot%253E%253C%252FmxGraphModel%253E%26lt%3B%2Fspan%26gt%3B%22%20style%3D%22rounded%3D0%3BwhiteSpace%3Dwrap%3Bhtml%3D1%3B%22%20vertex%3D%221%22%20parent%3D%221%22%3E%3CmxGeometry%20x%3D%22270%22%20y%3D%22930%22%20width%3D%2240%22%20height%3D%22150%22%20as%3D%22geometry%22%2F%3E%3C%2FmxCell%3E%3C%2Froot%3E%3C%2FmxGraphModel%3E&lt;/span&gt;" style="rounded=0;whiteSpace=wrap;html=1;" vertex="1" parent="1">
          <mxGeometry x="730" y="930" width="40" height="150" as="geometry" />
        </mxCell>
        <mxCell id="DHYdU_vS-8Hj54yX8ZzH-149" value="封面上传" style="rounded=0;whiteSpace=wrap;html=1;" vertex="1" parent="1">
          <mxGeometry x="780" y="930" width="40" height="150" as="geometry" />
        </mxCell>
        <mxCell id="DHYdU_vS-8Hj54yX8ZzH-150" value="添加借书信息" style="rounded=0;whiteSpace=wrap;html=1;" vertex="1" parent="1">
          <mxGeometry x="840" y="930" width="40" height="150" as="geometry" />
        </mxCell>
        <mxCell id="DHYdU_vS-8Hj54yX8ZzH-151" value="编辑借书信息" style="rounded=0;whiteSpace=wrap;html=1;" vertex="1" parent="1">
          <mxGeometry x="890" y="930" width="40" height="150" as="geometry" />
        </mxCell>
        <mxCell id="DHYdU_vS-8Hj54yX8ZzH-152" value="查询借书人" style="rounded=0;whiteSpace=wrap;html=1;" vertex="1" parent="1">
          <mxGeometry x="940" y="930" width="40" height="150" as="geometry" />
        </mxCell>
        <mxCell id="DHYdU_vS-8Hj54yX8ZzH-153" value="添加还书" style="rounded=0;whiteSpace=wrap;html=1;" vertex="1" parent="1">
          <mxGeometry x="1050" y="930" width="40" height="150" as="geometry" />
        </mxCell>
        <mxCell id="DHYdU_vS-8Hj54yX8ZzH-154" value="删除借书信息" style="rounded=0;whiteSpace=wrap;html=1;" vertex="1" parent="1">
          <mxGeometry x="990" y="930" width="40" height="150" as="geometry" />
        </mxCell>
        <mxCell id="DHYdU_vS-8Hj54yX8ZzH-156" value="查询还书" style="rounded=0;whiteSpace=wrap;html=1;" vertex="1" parent="1">
          <mxGeometry x="1110" y="930" width="40" height="150" as="geometry" />
        </mxCell>
        <mxCell id="DHYdU_vS-8Hj54yX8ZzH-157" value="添加会员" style="rounded=0;whiteSpace=wrap;html=1;" vertex="1" parent="1">
          <mxGeometry x="1330" y="930" width="40" height="150" as="geometry" />
        </mxCell>
        <mxCell id="DHYdU_vS-8Hj54yX8ZzH-158" value="删除会员" style="rounded=0;whiteSpace=wrap;html=1;" vertex="1" parent="1">
          <mxGeometry x="1230" y="930" width="40" height="150" as="geometry" />
        </mxCell>
        <mxCell id="DHYdU_vS-8Hj54yX8ZzH-159" value="查询会员" style="rounded=0;whiteSpace=wrap;html=1;" vertex="1" parent="1">
          <mxGeometry x="1280" y="930" width="40" height="150" as="geometry" />
        </mxCell>
        <mxCell id="DHYdU_vS-8Hj54yX8ZzH-160" value="积分充值" style="rounded=0;whiteSpace=wrap;html=1;" vertex="1" parent="1">
          <mxGeometry x="1380" y="930" width="40" height="150" as="geometry" />
        </mxCell>
        <mxCell id="DHYdU_vS-8Hj54yX8ZzH-161" value="编辑会员" style="rounded=0;whiteSpace=wrap;html=1;" vertex="1" parent="1">
          <mxGeometry x="1180" y="930" width="40" height="150" as="geometry" />
        </mxCell>
        <mxCell id="DHYdU_vS-8Hj54yX8ZzH-162" value="" style="endArrow=classic;html=1;rounded=0;entryX=0.5;entryY=0;entryDx=0;entryDy=0;" edge="1" parent="1" target="DHYdU_vS-8Hj54yX8ZzH-138">
          <mxGeometry width="50" height="50" relative="1" as="geometry">
            <mxPoint x="180" y="910" as="sourcePoint" />
            <mxPoint x="160" y="910" as="targetPoint" />
          </mxGeometry>
        </mxCell>
        <mxCell id="DHYdU_vS-8Hj54yX8ZzH-163" value="" style="endArrow=classic;html=1;rounded=0;entryX=0.5;entryY=0;entryDx=0;entryDy=0;" edge="1" parent="1" target="DHYdU_vS-8Hj54yX8ZzH-139">
          <mxGeometry width="50" height="50" relative="1" as="geometry">
            <mxPoint x="240" y="910" as="sourcePoint" />
            <mxPoint x="190" y="940" as="targetPoint" />
          </mxGeometry>
        </mxCell>
        <mxCell id="DHYdU_vS-8Hj54yX8ZzH-164" value="" style="endArrow=classic;html=1;rounded=0;entryX=0.5;entryY=0;entryDx=0;entryDy=0;" edge="1" parent="1" target="DHYdU_vS-8Hj54yX8ZzH-140">
          <mxGeometry width="50" height="50" relative="1" as="geometry">
            <mxPoint x="290" y="910" as="sourcePoint" />
            <mxPoint x="250" y="940" as="targetPoint" />
          </mxGeometry>
        </mxCell>
        <mxCell id="DHYdU_vS-8Hj54yX8ZzH-165" value="" style="endArrow=none;html=1;rounded=0;" edge="1" parent="1">
          <mxGeometry width="50" height="50" relative="1" as="geometry">
            <mxPoint x="360" y="910" as="sourcePoint" />
            <mxPoint x="520" y="910" as="targetPoint" />
          </mxGeometry>
        </mxCell>
        <mxCell id="DHYdU_vS-8Hj54yX8ZzH-166" value="" style="endArrow=classic;html=1;rounded=0;entryX=0.75;entryY=0;entryDx=0;entryDy=0;" edge="1" parent="1" target="DHYdU_vS-8Hj54yX8ZzH-141">
          <mxGeometry width="50" height="50" relative="1" as="geometry">
            <mxPoint x="360" y="910" as="sourcePoint" />
            <mxPoint x="430" y="900" as="targetPoint" />
          </mxGeometry>
        </mxCell>
        <mxCell id="DHYdU_vS-8Hj54yX8ZzH-167" value="" style="endArrow=classic;html=1;rounded=0;entryX=0.5;entryY=0;entryDx=0;entryDy=0;" edge="1" parent="1" target="DHYdU_vS-8Hj54yX8ZzH-142">
          <mxGeometry width="50" height="50" relative="1" as="geometry">
            <mxPoint x="410" y="910" as="sourcePoint" />
            <mxPoint x="370" y="940" as="targetPoint" />
          </mxGeometry>
        </mxCell>
        <mxCell id="DHYdU_vS-8Hj54yX8ZzH-168" value="" style="endArrow=classic;html=1;rounded=0;entryX=0.5;entryY=0;entryDx=0;entryDy=0;" edge="1" parent="1" target="DHYdU_vS-8Hj54yX8ZzH-143">
          <mxGeometry width="50" height="50" relative="1" as="geometry">
            <mxPoint x="470" y="910" as="sourcePoint" />
            <mxPoint x="420" y="940" as="targetPoint" />
          </mxGeometry>
        </mxCell>
        <mxCell id="DHYdU_vS-8Hj54yX8ZzH-169" value="" style="endArrow=classic;html=1;rounded=0;entryX=0.25;entryY=0;entryDx=0;entryDy=0;" edge="1" parent="1" target="DHYdU_vS-8Hj54yX8ZzH-144">
          <mxGeometry width="50" height="50" relative="1" as="geometry">
            <mxPoint x="520" y="910" as="sourcePoint" />
            <mxPoint x="480" y="940" as="targetPoint" />
          </mxGeometry>
        </mxCell>
        <mxCell id="DHYdU_vS-8Hj54yX8ZzH-174" value="登&lt;div&gt;录&lt;/div&gt;" style="rounded=0;whiteSpace=wrap;html=1;" vertex="1" parent="1">
          <mxGeometry x="560" y="740" width="40" height="150" as="geometry" />
        </mxCell>
        <mxCell id="DHYdU_vS-8Hj54yX8ZzH-175" value="" style="endArrow=classic;html=1;rounded=0;" edge="1" parent="1">
          <mxGeometry width="50" height="50" relative="1" as="geometry">
            <mxPoint x="580" y="720" as="sourcePoint" />
            <mxPoint x="580" y="740" as="targetPoint" />
          </mxGeometry>
        </mxCell>
        <mxCell id="DHYdU_vS-8Hj54yX8ZzH-176" value="" style="endArrow=classic;html=1;rounded=0;entryX=0.5;entryY=0;entryDx=0;entryDy=0;" edge="1" parent="1" target="DHYdU_vS-8Hj54yX8ZzH-107">
          <mxGeometry width="50" height="50" relative="1" as="geometry">
            <mxPoint x="700" y="720" as="sourcePoint" />
            <mxPoint x="810" y="750" as="targetPoint" />
          </mxGeometry>
        </mxCell>
        <mxCell id="DHYdU_vS-8Hj54yX8ZzH-177" value="" style="endArrow=classic;html=1;rounded=0;entryX=0.5;entryY=0;entryDx=0;entryDy=0;" edge="1" parent="1" target="DHYdU_vS-8Hj54yX8ZzH-108">
          <mxGeometry width="50" height="50" relative="1" as="geometry">
            <mxPoint x="935" y="720" as="sourcePoint" />
            <mxPoint x="710" y="750" as="targetPoint" />
          </mxGeometry>
        </mxCell>
        <mxCell id="DHYdU_vS-8Hj54yX8ZzH-178" value="" style="endArrow=classic;html=1;rounded=0;entryX=0.5;entryY=0;entryDx=0;entryDy=0;" edge="1" parent="1" target="DHYdU_vS-8Hj54yX8ZzH-109">
          <mxGeometry width="50" height="50" relative="1" as="geometry">
            <mxPoint x="1100" y="720" as="sourcePoint" />
            <mxPoint x="945" y="750" as="targetPoint" />
          </mxGeometry>
        </mxCell>
        <mxCell id="DHYdU_vS-8Hj54yX8ZzH-179" value="" style="endArrow=classic;html=1;rounded=0;entryX=0.5;entryY=0;entryDx=0;entryDy=0;" edge="1" parent="1" target="DHYdU_vS-8Hj54yX8ZzH-110">
          <mxGeometry width="50" height="50" relative="1" as="geometry">
            <mxPoint x="1300" y="720" as="sourcePoint" />
            <mxPoint x="955" y="760" as="targetPoint" />
          </mxGeometry>
        </mxCell>
        <mxCell id="DHYdU_vS-8Hj54yX8ZzH-180" value="" style="endArrow=none;html=1;rounded=0;" edge="1" parent="1">
          <mxGeometry width="50" height="50" relative="1" as="geometry">
            <mxPoint x="600" y="910" as="sourcePoint" />
            <mxPoint x="800" y="910" as="targetPoint" />
          </mxGeometry>
        </mxCell>
        <mxCell id="DHYdU_vS-8Hj54yX8ZzH-181" value="" style="endArrow=none;html=1;rounded=0;" edge="1" parent="1">
          <mxGeometry width="50" height="50" relative="1" as="geometry">
            <mxPoint x="861.25" y="910" as="sourcePoint" />
            <mxPoint x="1021.25" y="910" as="targetPoint" />
          </mxGeometry>
        </mxCell>
        <mxCell id="DHYdU_vS-8Hj54yX8ZzH-182" value="" style="endArrow=none;html=1;rounded=0;" edge="1" parent="1">
          <mxGeometry width="50" height="50" relative="1" as="geometry">
            <mxPoint x="1060" y="910" as="sourcePoint" />
            <mxPoint x="1140" y="910" as="targetPoint" />
          </mxGeometry>
        </mxCell>
        <mxCell id="DHYdU_vS-8Hj54yX8ZzH-183" value="" style="endArrow=none;html=1;rounded=0;" edge="1" parent="1">
          <mxGeometry width="50" height="50" relative="1" as="geometry">
            <mxPoint x="1200" y="910" as="sourcePoint" />
            <mxPoint x="1400" y="910" as="targetPoint" />
          </mxGeometry>
        </mxCell>
        <mxCell id="DHYdU_vS-8Hj54yX8ZzH-184" value="" style="endArrow=classic;html=1;rounded=0;entryX=0.5;entryY=0;entryDx=0;entryDy=0;" edge="1" parent="1" target="DHYdU_vS-8Hj54yX8ZzH-145">
          <mxGeometry width="50" height="50" relative="1" as="geometry">
            <mxPoint x="600" y="910" as="sourcePoint" />
            <mxPoint x="300" y="940" as="targetPoint" />
          </mxGeometry>
        </mxCell>
        <mxCell id="DHYdU_vS-8Hj54yX8ZzH-185" value="" style="endArrow=classic;html=1;rounded=0;entryX=0.5;entryY=0;entryDx=0;entryDy=0;" edge="1" parent="1" target="DHYdU_vS-8Hj54yX8ZzH-146">
          <mxGeometry width="50" height="50" relative="1" as="geometry">
            <mxPoint x="650" y="910" as="sourcePoint" />
            <mxPoint x="610" y="940" as="targetPoint" />
          </mxGeometry>
        </mxCell>
        <mxCell id="DHYdU_vS-8Hj54yX8ZzH-186" value="" style="endArrow=classic;html=1;rounded=0;entryX=0.5;entryY=0;entryDx=0;entryDy=0;" edge="1" parent="1" target="DHYdU_vS-8Hj54yX8ZzH-147">
          <mxGeometry width="50" height="50" relative="1" as="geometry">
            <mxPoint x="700" y="910" as="sourcePoint" />
            <mxPoint x="660" y="940" as="targetPoint" />
          </mxGeometry>
        </mxCell>
        <mxCell id="DHYdU_vS-8Hj54yX8ZzH-187" value="" style="endArrow=classic;html=1;rounded=0;entryX=0.75;entryY=0;entryDx=0;entryDy=0;" edge="1" parent="1" target="DHYdU_vS-8Hj54yX8ZzH-148">
          <mxGeometry width="50" height="50" relative="1" as="geometry">
            <mxPoint x="760" y="910" as="sourcePoint" />
            <mxPoint x="710" y="940" as="targetPoint" />
          </mxGeometry>
        </mxCell>
        <mxCell id="DHYdU_vS-8Hj54yX8ZzH-188" value="" style="endArrow=classic;html=1;rounded=0;entryX=0.5;entryY=0;entryDx=0;entryDy=0;" edge="1" parent="1" target="DHYdU_vS-8Hj54yX8ZzH-149">
          <mxGeometry width="50" height="50" relative="1" as="geometry">
            <mxPoint x="800" y="910" as="sourcePoint" />
            <mxPoint x="770" y="940" as="targetPoint" />
          </mxGeometry>
        </mxCell>
        <mxCell id="DHYdU_vS-8Hj54yX8ZzH-189" value="" style="endArrow=classic;html=1;rounded=0;entryX=0.5;entryY=0;entryDx=0;entryDy=0;" edge="1" parent="1" target="DHYdU_vS-8Hj54yX8ZzH-150">
          <mxGeometry width="50" height="50" relative="1" as="geometry">
            <mxPoint x="860" y="910" as="sourcePoint" />
            <mxPoint x="810" y="940" as="targetPoint" />
          </mxGeometry>
        </mxCell>
        <mxCell id="DHYdU_vS-8Hj54yX8ZzH-190" value="" style="endArrow=classic;html=1;rounded=0;entryX=0.5;entryY=0;entryDx=0;entryDy=0;" edge="1" parent="1" target="DHYdU_vS-8Hj54yX8ZzH-151">
          <mxGeometry width="50" height="50" relative="1" as="geometry">
            <mxPoint x="910" y="910" as="sourcePoint" />
            <mxPoint x="870" y="940" as="targetPoint" />
          </mxGeometry>
        </mxCell>
        <mxCell id="DHYdU_vS-8Hj54yX8ZzH-191" value="" style="endArrow=classic;html=1;rounded=0;entryX=0.5;entryY=0;entryDx=0;entryDy=0;" edge="1" parent="1" target="DHYdU_vS-8Hj54yX8ZzH-152">
          <mxGeometry width="50" height="50" relative="1" as="geometry">
            <mxPoint x="960" y="910" as="sourcePoint" />
            <mxPoint x="920" y="940" as="targetPoint" />
          </mxGeometry>
        </mxCell>
        <mxCell id="DHYdU_vS-8Hj54yX8ZzH-192" value="" style="endArrow=classic;html=1;rounded=0;entryX=0.75;entryY=0;entryDx=0;entryDy=0;" edge="1" parent="1" target="DHYdU_vS-8Hj54yX8ZzH-154">
          <mxGeometry width="50" height="50" relative="1" as="geometry">
            <mxPoint x="1020" y="910" as="sourcePoint" />
            <mxPoint x="970" y="940" as="targetPoint" />
          </mxGeometry>
        </mxCell>
        <mxCell id="DHYdU_vS-8Hj54yX8ZzH-193" value="" style="endArrow=classic;html=1;rounded=0;entryX=0.25;entryY=0;entryDx=0;entryDy=0;" edge="1" parent="1" target="DHYdU_vS-8Hj54yX8ZzH-153">
          <mxGeometry width="50" height="50" relative="1" as="geometry">
            <mxPoint x="1060" y="910" as="sourcePoint" />
            <mxPoint x="1030" y="940" as="targetPoint" />
          </mxGeometry>
        </mxCell>
        <mxCell id="DHYdU_vS-8Hj54yX8ZzH-194" value="" style="endArrow=classic;html=1;rounded=0;entryX=0.75;entryY=0;entryDx=0;entryDy=0;" edge="1" parent="1" target="DHYdU_vS-8Hj54yX8ZzH-156">
          <mxGeometry width="50" height="50" relative="1" as="geometry">
            <mxPoint x="1140" y="910" as="sourcePoint" />
            <mxPoint x="1070" y="940" as="targetPoint" />
          </mxGeometry>
        </mxCell>
        <mxCell id="DHYdU_vS-8Hj54yX8ZzH-195" value="" style="endArrow=classic;html=1;rounded=0;entryX=0.5;entryY=0;entryDx=0;entryDy=0;" edge="1" parent="1" target="DHYdU_vS-8Hj54yX8ZzH-161">
          <mxGeometry width="50" height="50" relative="1" as="geometry">
            <mxPoint x="1200" y="910" as="sourcePoint" />
            <mxPoint x="1150" y="940" as="targetPoint" />
          </mxGeometry>
        </mxCell>
        <mxCell id="DHYdU_vS-8Hj54yX8ZzH-196" value="" style="endArrow=classic;html=1;rounded=0;entryX=0.5;entryY=0;entryDx=0;entryDy=0;" edge="1" parent="1" target="DHYdU_vS-8Hj54yX8ZzH-158">
          <mxGeometry width="50" height="50" relative="1" as="geometry">
            <mxPoint x="1250" y="910" as="sourcePoint" />
            <mxPoint x="1210" y="940" as="targetPoint" />
          </mxGeometry>
        </mxCell>
        <mxCell id="DHYdU_vS-8Hj54yX8ZzH-197" value="" style="endArrow=classic;html=1;rounded=0;entryX=0.5;entryY=0;entryDx=0;entryDy=0;" edge="1" parent="1" target="DHYdU_vS-8Hj54yX8ZzH-159">
          <mxGeometry width="50" height="50" relative="1" as="geometry">
            <mxPoint x="1300" y="910" as="sourcePoint" />
            <mxPoint x="1260" y="940" as="targetPoint" />
          </mxGeometry>
        </mxCell>
        <mxCell id="DHYdU_vS-8Hj54yX8ZzH-198" value="" style="endArrow=classic;html=1;rounded=0;entryX=0.5;entryY=0;entryDx=0;entryDy=0;" edge="1" parent="1" target="DHYdU_vS-8Hj54yX8ZzH-157">
          <mxGeometry width="50" height="50" relative="1" as="geometry">
            <mxPoint x="1350" y="910" as="sourcePoint" />
            <mxPoint x="1310" y="940" as="targetPoint" />
          </mxGeometry>
        </mxCell>
        <mxCell id="DHYdU_vS-8Hj54yX8ZzH-199" value="" style="endArrow=classic;html=1;rounded=0;entryX=0.5;entryY=0;entryDx=0;entryDy=0;" edge="1" parent="1" target="DHYdU_vS-8Hj54yX8ZzH-160">
          <mxGeometry width="50" height="50" relative="1" as="geometry">
            <mxPoint x="1400" y="910" as="sourcePoint" />
            <mxPoint x="1360" y="940" as="targetPoint" />
          </mxGeometry>
        </mxCell>
        <mxCell id="DHYdU_vS-8Hj54yX8ZzH-200" value="" style="endArrow=none;html=1;rounded=0;entryX=0.5;entryY=1;entryDx=0;entryDy=0;" edge="1" parent="1" target="DHYdU_vS-8Hj54yX8ZzH-106">
          <mxGeometry width="50" height="50" relative="1" as="geometry">
            <mxPoint x="440" y="910" as="sourcePoint" />
            <mxPoint x="450" y="900" as="targetPoint" />
          </mxGeometry>
        </mxCell>
        <mxCell id="DHYdU_vS-8Hj54yX8ZzH-202" value="" style="endArrow=none;html=1;rounded=0;entryX=0.5;entryY=1;entryDx=0;entryDy=0;" edge="1" parent="1" target="DHYdU_vS-8Hj54yX8ZzH-107">
          <mxGeometry width="50" height="50" relative="1" as="geometry">
            <mxPoint x="700" y="910" as="sourcePoint" />
            <mxPoint x="710" y="900" as="targetPoint" />
          </mxGeometry>
        </mxCell>
        <mxCell id="DHYdU_vS-8Hj54yX8ZzH-203" value="" style="endArrow=none;html=1;rounded=0;entryX=0.5;entryY=1;entryDx=0;entryDy=0;" edge="1" parent="1" target="DHYdU_vS-8Hj54yX8ZzH-108">
          <mxGeometry width="50" height="50" relative="1" as="geometry">
            <mxPoint x="935" y="910" as="sourcePoint" />
            <mxPoint x="710" y="900" as="targetPoint" />
          </mxGeometry>
        </mxCell>
        <mxCell id="DHYdU_vS-8Hj54yX8ZzH-204" value="" style="endArrow=none;html=1;rounded=0;entryX=0.5;entryY=1;entryDx=0;entryDy=0;" edge="1" parent="1" target="DHYdU_vS-8Hj54yX8ZzH-109">
          <mxGeometry width="50" height="50" relative="1" as="geometry">
            <mxPoint x="1100" y="910" as="sourcePoint" />
            <mxPoint x="945" y="900" as="targetPoint" />
          </mxGeometry>
        </mxCell>
        <mxCell id="DHYdU_vS-8Hj54yX8ZzH-205" value="" style="endArrow=none;html=1;rounded=0;entryX=0.5;entryY=1;entryDx=0;entryDy=0;" edge="1" parent="1" target="DHYdU_vS-8Hj54yX8ZzH-110">
          <mxGeometry width="50" height="50" relative="1" as="geometry">
            <mxPoint x="1300" y="910" as="sourcePoint" />
            <mxPoint x="1110" y="900" as="targetPoint" />
          </mxGeometry>
        </mxCell>
      </root>
    </mxGraphModel>
  </diagram>
</mxfile>
